<svg xmlns="http://www.w3.org/2000/svg" viewBox="0 0 36 36" width="36" height="36">
  <path fill="#000000" d="M28.225,7.775C29.553,9.09,30,11.097,30,13c0,1.903-0.447,3.91-1.775,5.225-1.224,1.314-3.21,1.9-5.225,1.9-2.016,0-4.001-0.586-5.225-1.9-1.328-1.315-1.775-3.322-1.775-5.225S22.409,8.678,23.775,7.775C24.999,7.278,26.082,7,27,7C27.919,7,28.999,7.278,28.225,7.775zM23,17.318c-0.933,0.858-2.204,1.318-3.425,1.318-1.221,0-2.493-0.46-3.426-1.318-0.938-0.858-1.423-2.027-1.423-3.318,0-1.291,0.485-2.46,1.423-3.318,0.933-0.858,2.205-1.318,3.426-1.318,1.221,0,2.493,0.46,3.425,1.318,0.938,0.858,1.423,2.027,1.423,3.318,0,1.291-0.485,2.46-1.423,3.318zM7.313,10.562c-0.714-0.546-1.63-0.859-2.563-0.859-1.759,0-3.374,0.932-4.263,2.368-0.45,0.68-0.813,1.44-1.032,2.232-0.389,1.094-0.567,2.248-0.567,3.432s0.178,2.338,0.567,3.432c0.219,0.792,0.583,1.552,1.032,2.232,0.889,1.436,2.504,2.368,4.263,2.368,0.933,0,1.849-0.313,2.563-0.859,0.913-0.669,1.49-1.61,1.623-2.692,0.134-1.084-0.131-2.183-0.826-3.054-0.723-1.095-1.844-1.834-3.235-2.02V14.56c0.697,0.033,1.375,0.214,1.932,0.56,0.855,0.465,1.498,1.088,1.623,1.898,0.136,0.79-0.115,1.569-0.766,2.16-0.729,0.752-1.725,1.131-2.721,1.131-0.511,0-1.027-0.07-1.515-0.205-1.197-0.269-2.156-1.049-2.626-2.111-0.63-1.267-0.35-2.829,0.626-3.855,0.381-0.47,0.859-0.862,1.426-1.053,0.019-0.007,0.039-0.015,0.058-0.022,0.103-0.038,0.206-0.073,0.311-0.107,1.403-0.509,2.295-1.723,2.526-3.077,0.169-0.957,0.1-1.999-0.185-2.918-0.55-1.759-1.781-2.814-3.34-3.126C8.205,7.355,7.418,7.207,7.313,10.562z"/>
</svg>
